<?xml version="1.0" encoding="utf-8"?>
<!-- Generator: Adobe Illustrator 16.0.0, SVG Export Plug-In . SVG Version: 6.00 Build 0)  -->
<!DOCTYPE svg PUBLIC "-//W3C//DTD SVG 1.1//EN" "http://www.w3.org/Graphics/SVG/1.1/DTD/svg11.dtd">
<svg version="1.1" id="Layer_1" xmlns="http://www.w3.org/2000/svg" xmlns:xlink="http://www.w3.org/1999/xlink" x="0px" y="0px"
	 width="239px" height="92px" viewBox="0 0 239 92" enable-background="new 0 0 239 92" xml:space="preserve">
<g>
	<path fill="#FFFFFF" d="M47.851,91.777c-1.385-0.031-2.754-0.031-4.139-0.031c-1.451,0-2.884,0-4.319,0.031v-0.424
		c0.815,0.049,1.483-0.162,1.483-1.092V82c0-1.141-0.62-1.156-1.483-1.174v-0.424c0.766,0.018,1.516,0.033,2.249,0.033
		c0.75,0,1.5-0.016,2.314-0.033v0.424c-0.864,0.018-1.483,0.033-1.483,1.174v7.545c0,1.207,0.261,1.711,2.575,1.711
		c1.89,0,2.542-0.455,3.047-2.037l0.358,0.066L47.851,91.777z"/>
	<path fill="#FFFFFF" d="M52.432,85.553h2.151c1.32,0,1.32-1.027,1.369-1.402h0.326c-0.033,0.359-0.065,1.24-0.065,1.826
		c0,0.521,0.082,1.287,0.065,1.809h-0.326c0-1.564-0.521-1.564-1.776-1.564h-1.744v2.77c0,1.811,0.065,2.266,1.679,2.266h1.01
		c1.597-0.08,2.314-0.293,2.95-2.037l0.391,0.066c-0.261,0.814-0.505,1.645-0.668,2.492c-1.63,0-3.259-0.031-4.889-0.031
		c-1.206,0-2.412,0-3.618,0.031v-0.424c1.418,0,1.548-0.26,1.548-1.842v-7.234c0-1.336-0.261-1.402-1.548-1.451v-0.424
		c1.092,0.033,2.2,0.033,3.292,0.033c1.564,0,3.112,0,4.693-0.033v2.43l-0.326,0.08c-0.244-1.531-0.978-1.988-2.607-1.988h-1.907
		V85.553z"/>
	<path fill="#FFFFFF" d="M70.198,83.32h-0.358c-0.424-1.891-2.004-2.641-3.83-2.641c-2.885,0-4.547,2.525-4.547,5.182
		c0,2.82,1.728,5.639,4.661,5.639c1.288,0,1.956-0.455,2.2-0.635v-2.428c0-1.189-0.619-1.189-1.483-1.189v-0.424
		c0.766,0.016,1.516,0.031,2.249,0.031c0.75,0,1.5-0.016,1.988-0.031v0.424c-0.538,0-1.157,0-1.157,1.189v2.135l0.244,0.244v0.277
		c-1.32,0.473-2.819,0.928-4.237,0.928c-4.58,0-6.258-3.584-6.258-5.914c0-3.424,2.656-5.949,6.062-5.949
		c1.451,0,2.835,0.375,4.188,0.881L70.198,83.32z"/>
	<path fill="#FFFFFF" d="M80.679,88.535c0.229,0.635,0.668,2.02,0.929,2.379c0.244,0.326,0.733,0.439,1.255,0.439v0.424
		c-0.62,0-1.255-0.031-1.874-0.031c-0.799,0-1.581,0.016-2.379,0.031v-0.424h0.293c0.407,0,0.896-0.08,0.896-0.537
		c0-0.18-0.13-0.635-0.245-0.945l-0.814-2.363h-3.83l-0.359,1.141c-0.212,0.686-0.44,1.436-0.44,1.939
		c0,0.766,0.538,0.734,1.108,0.766h0.375v0.424c-0.635,0-1.287-0.031-1.923-0.031c-0.652,0-1.32,0.016-1.972,0.031v-0.424
		c0.994-0.113,1.173-0.244,1.581-1.156c0.261-0.586,0.457-1.223,0.668-1.826l2.086-5.816c0.13-0.375,0.342-0.979,0.342-1.467
		c0-0.164,0-0.293-0.032-0.424c0.342-0.164,0.717-0.342,0.945-0.717h0.277L80.679,88.535z M75.138,86.84h3.357l-1.744-4.791h-0.033
		L75.138,86.84z"/>
	<path fill="#FFFFFF" d="M92.203,91.777c-1.385-0.031-2.754-0.031-4.139-0.031c-1.45,0-2.885,0-4.318,0.031v-0.424
		c0.814,0.049,1.483-0.162,1.483-1.092V82c0-1.141-0.62-1.156-1.483-1.174v-0.424c0.766,0.018,1.515,0.033,2.249,0.033
		c0.75,0,1.5-0.016,2.314-0.033v0.424c-0.863,0.018-1.483,0.033-1.483,1.174v7.545c0,1.207,0.261,1.711,2.575,1.711
		c1.89,0,2.542-0.455,3.047-2.037l0.358,0.066L92.203,91.777z"/>
	<path fill="#FFFFFF" d="M101.315,86.4v3.781c0,1.141,0.62,1.156,1.483,1.172v0.424c-0.782,0-1.483-0.031-2.2-0.031
		c-0.782,0-1.548,0.016-2.363,0.031v-0.424c0.814,0.049,1.483-0.162,1.483-1.092V82c0-1.141-0.62-1.156-1.483-1.174v-0.424
		c0.896,0.018,1.678,0.033,2.477,0.033c0.571,0,1.141-0.033,2.184-0.033c3.08,0,3.764,1.729,3.764,2.885
		c0,1.385-1.043,2.412-2.314,2.787c1.483,2.168,2.265,3.471,2.966,4.254c0.521,0.586,1.011,1.025,1.842,1.025v0.424
		c-0.408,0-0.815-0.031-1.222-0.031c-0.457,0-0.929,0.016-1.385,0.031c-1.483-1.629-2.575-3.535-3.749-5.377H101.315z
		 M102.293,80.924c-0.407,0-0.685,0.049-0.978,0.098v4.775c0.245,0.049,0.587,0.082,0.864,0.082c2.004,0,2.787-1.32,2.787-2.494
		C104.966,81.967,104.216,80.924,102.293,80.924z"/>
	<path fill="#FFFFFF" d="M113.084,85.553h2.151c1.32,0,1.32-1.027,1.369-1.402h0.326c-0.033,0.359-0.065,1.24-0.065,1.826
		c0,0.521,0.082,1.287,0.065,1.809h-0.326c0-1.564-0.521-1.564-1.776-1.564h-1.744v2.77c0,1.811,0.065,2.266,1.679,2.266h1.01
		c1.597-0.08,2.314-0.293,2.95-2.037l0.391,0.066c-0.261,0.814-0.505,1.645-0.668,2.492c-1.63,0-3.259-0.031-4.889-0.031
		c-1.206,0-2.412,0-3.618,0.031v-0.424c1.418,0,1.548-0.26,1.548-1.842v-7.234c0-1.336-0.261-1.402-1.548-1.451v-0.424
		c1.092,0.033,2.2,0.033,3.292,0.033c1.564,0,3.112,0,4.693-0.033v2.43l-0.326,0.08c-0.244-1.531-0.978-1.988-2.607-1.988h-1.907
		V85.553z"/>
	<path fill="#FFFFFF" d="M120.126,89.09h0.375c0.276,1.221,1.189,2.41,2.542,2.41c1.255,0,2.232-0.879,2.232-2.166
		c0-3.031-4.823-2.135-4.823-5.98c0-2.104,1.499-3.195,3.487-3.195c0.668,0,1.336,0.146,1.988,0.244l0.262,2.086h-0.375
		c-0.18-1.141-0.93-1.809-2.104-1.809c-1.238,0-1.955,0.896-1.955,2.086c0,3.031,5.02,2.201,5.02,5.949
		c0,2.117-1.907,3.307-3.83,3.307c-0.848,0-1.728-0.195-2.493-0.553L120.126,89.09z"/>
	<path fill="#FFFFFF" d="M134.34,80.158c3.258,0,5.816,2.771,5.816,5.867c0,2.982-2.297,5.996-5.865,5.996
		c-3.26,0-5.818-2.77-5.818-5.865C128.473,83.174,130.77,80.158,134.34,80.158z M134.486,91.5c2.379,0,3.877-2.053,3.877-5.002
		c0-2.477-1.434-5.818-4.221-5.818c-2.379,0-3.877,2.053-3.877,5.004C130.266,88.16,131.699,91.5,134.486,91.5z"/>
	<path fill="#FFFFFF" d="M152.676,80.826c-1.305,0-1.287,0.637-1.287,2.625v4.693c0,2.215-1.387,3.877-4.254,3.877
		c-2.689,0-4.303-1.303-4.352-4.074V82c0-1.141-0.619-1.156-1.482-1.174v-0.424c0.766,0.018,1.516,0.033,2.248,0.033
		c0.75,0,1.5-0.016,2.314-0.033v0.424c-0.863,0.018-1.482,0.033-1.482,1.174v5.541c0,1.939,0.635,3.812,3.178,3.812
		c2.705,0,2.965-2.086,2.965-3.209V83.5c0-2.674-0.098-2.625-1.547-2.674v-0.424c0.684,0.018,1.369,0.033,2.053,0.033
		c0.555,0,1.092-0.033,1.646-0.033V80.826z"/>
	<path fill="#FFFFFF" d="M156.539,86.4v3.781c0,1.141,0.619,1.156,1.482,1.172v0.424c-0.781,0-1.482-0.031-2.199-0.031
		c-0.781,0-1.549,0.016-2.363,0.031v-0.424c0.814,0.049,1.484-0.162,1.484-1.092V82c0-1.141-0.621-1.156-1.484-1.174v-0.424
		c0.896,0.018,1.68,0.033,2.477,0.033c0.572,0,1.143-0.033,2.186-0.033c3.08,0,3.764,1.729,3.764,2.885
		c0,1.385-1.043,2.412-2.314,2.787c1.482,2.168,2.266,3.471,2.967,4.254c0.521,0.586,1.01,1.025,1.842,1.025v0.424
		c-0.408,0-0.816-0.031-1.223-0.031c-0.457,0-0.93,0.016-1.385,0.031c-1.484-1.629-2.576-3.535-3.75-5.377H156.539z M157.518,80.924
		c-0.408,0-0.686,0.049-0.979,0.098v4.775c0.244,0.049,0.588,0.082,0.863,0.082c2.006,0,2.787-1.32,2.787-2.494
		C160.189,81.967,159.439,80.924,157.518,80.924z"/>
	<path fill="#FFFFFF" d="M175.771,83.354h-0.406c-0.311-1.908-1.664-2.674-3.488-2.674c-1.875,0-4.596,1.256-4.596,5.166
		c0,3.293,2.348,5.654,4.855,5.654c1.615,0,2.951-1.107,3.277-2.818l0.373,0.098l-0.373,2.379c-0.686,0.424-2.527,0.863-3.602,0.863
		c-3.814,0-6.227-2.459-6.227-6.127c0-3.34,2.982-5.736,6.178-5.736c1.318,0,2.59,0.424,3.846,0.863L175.771,83.354z"/>
	<path fill="#FFFFFF" d="M180.076,85.553h2.15c1.32,0,1.32-1.027,1.369-1.402h0.326c-0.033,0.359-0.064,1.24-0.064,1.826
		c0,0.521,0.08,1.287,0.064,1.809h-0.326c0-1.564-0.521-1.564-1.775-1.564h-1.744v2.77c0,1.811,0.064,2.266,1.678,2.266h1.012
		c1.596-0.08,2.312-0.293,2.949-2.037l0.391,0.066c-0.26,0.814-0.506,1.645-0.668,2.492c-1.629,0-3.26-0.031-4.889-0.031
		c-1.207,0-2.412,0-3.617,0.031v-0.424c1.418,0,1.547-0.26,1.547-1.842v-7.234c0-1.336-0.26-1.402-1.547-1.451v-0.424
		c1.092,0.033,2.199,0.033,3.291,0.033c1.564,0,3.113,0,4.693-0.033v2.43l-0.326,0.08c-0.244-1.531-0.977-1.988-2.607-1.988h-1.906
		V85.553z"/>
	<path fill="#FFFFFF" d="M200.172,88.535c0.229,0.635,0.67,2.02,0.93,2.379c0.244,0.326,0.732,0.439,1.254,0.439v0.424
		c-0.619,0-1.254-0.031-1.873-0.031c-0.799,0-1.58,0.016-2.379,0.031v-0.424h0.293c0.408,0,0.896-0.08,0.896-0.537
		c0-0.18-0.131-0.635-0.244-0.945l-0.814-2.363h-3.83l-0.359,1.141c-0.211,0.686-0.439,1.436-0.439,1.939
		c0,0.766,0.537,0.734,1.107,0.766h0.375v0.424c-0.635,0-1.287-0.031-1.922-0.031c-0.652,0-1.32,0.016-1.973,0.031v-0.424
		c0.994-0.113,1.174-0.244,1.58-1.156c0.262-0.586,0.457-1.223,0.668-1.826l2.086-5.816c0.131-0.375,0.344-0.979,0.344-1.467
		c0-0.164,0-0.293-0.033-0.424c0.342-0.164,0.717-0.342,0.945-0.717h0.277L200.172,88.535z M194.633,86.84h3.355l-1.742-4.791
		h-0.033L194.633,86.84z"/>
	<path fill="#FFFFFF" d="M206.318,86.4v3.781c0,1.141,0.619,1.156,1.482,1.172v0.424c-0.781,0-1.482-0.031-2.199-0.031
		c-0.783,0-1.549,0.016-2.363,0.031v-0.424c0.814,0.049,1.482-0.162,1.482-1.092V82c0-1.141-0.619-1.156-1.482-1.174v-0.424
		c0.896,0.018,1.68,0.033,2.477,0.033c0.57,0,1.141-0.033,2.184-0.033c3.08,0,3.766,1.729,3.766,2.885
		c0,1.385-1.043,2.412-2.314,2.787c1.482,2.168,2.266,3.471,2.967,4.254c0.521,0.586,1.01,1.025,1.84,1.025v0.424
		c-0.406,0-0.814-0.031-1.221-0.031c-0.457,0-0.93,0.016-1.387,0.031c-1.482-1.629-2.574-3.535-3.748-5.377H206.318z
		 M207.297,80.924c-0.408,0-0.686,0.049-0.979,0.098v4.775c0.244,0.049,0.586,0.082,0.863,0.082c2.006,0,2.787-1.32,2.787-2.494
		C209.969,81.967,209.219,80.924,207.297,80.924z"/>
	<path fill="#FFFFFF" d="M218.088,85.553h2.15c1.32,0,1.32-1.027,1.369-1.402h0.326c-0.033,0.359-0.066,1.24-0.066,1.826
		c0,0.521,0.082,1.287,0.066,1.809h-0.326c0-1.564-0.521-1.564-1.777-1.564h-1.742v2.77c0,1.811,0.064,2.266,1.678,2.266h1.01
		c1.598-0.08,2.314-0.293,2.951-2.037l0.391,0.066c-0.262,0.814-0.506,1.645-0.668,2.492c-1.631,0-3.26-0.031-4.889-0.031
		c-1.207,0-2.412,0-3.619,0.031v-0.424c1.418,0,1.549-0.26,1.549-1.842v-7.234c0-1.336-0.262-1.402-1.549-1.451v-0.424
		c1.092,0.033,2.201,0.033,3.293,0.033c1.564,0,3.111,0,4.693-0.033v2.43l-0.326,0.08c-0.244-1.531-0.979-1.988-2.607-1.988h-1.906
		V85.553z"/>
	<path fill="#FFFFFF" d="M233.652,88.535c0.229,0.635,0.668,2.02,0.928,2.379c0.246,0.326,0.734,0.439,1.256,0.439v0.424
		c-0.619,0-1.256-0.031-1.875-0.031c-0.797,0-1.58,0.016-2.379,0.031v-0.424h0.293c0.408,0,0.896-0.08,0.896-0.537
		c0-0.18-0.129-0.635-0.244-0.945l-0.814-2.363h-3.83l-0.357,1.141c-0.213,0.686-0.441,1.436-0.441,1.939
		c0,0.766,0.539,0.734,1.109,0.766h0.375v0.424c-0.637,0-1.289-0.031-1.924-0.031c-0.652,0-1.32,0.016-1.973,0.031v-0.424
		c0.994-0.113,1.174-0.244,1.582-1.156c0.26-0.586,0.455-1.223,0.668-1.826l2.086-5.816c0.131-0.375,0.342-0.979,0.342-1.467
		c0-0.164,0-0.293-0.033-0.424c0.344-0.164,0.719-0.342,0.945-0.717h0.277L233.652,88.535z M228.111,86.84h3.357l-1.744-4.791
		h-0.033L228.111,86.84z"/>
</g>
<g>
	<path fill-rule="evenodd" clip-rule="evenodd" fill="#F6A01A" d="M139.838,7.283c0,3.103-2.521,5.625-5.625,5.625
		s-5.625-2.522-5.625-5.625c0-3.104,2.521-5.625,5.625-5.625S139.838,4.178,139.838,7.283L139.838,7.283z"/>
</g>
<g>
	<path fill="#FFFFFF" d="M4.369,32.25h17.433c6.463,0,8.841,1.096,8.841,5.849c0,2.805-1.19,4.297-4.086,4.819
		c3.567,0.12,5.21,2.04,5.21,5.363c0,4.476-2.101,6.185-8.869,6.185H4.369V32.25z M21.681,41.573c3.689,0,4.938-0.182,4.938-3.014
		c0-2.836-1.248-2.987-4.938-2.987c-2.864,0-13.349,0-13.349,0v6C8.911,41.573,19.457,41.573,21.681,41.573z M22.808,51.176
		c3.655,0,4.938-0.332,4.938-3.199c0-2.835-1.282-3.232-4.938-3.232c-2.893,0-14.477,0-14.477,0v6.431
		C9.706,51.176,20.551,51.176,22.808,51.176z"/>
	<path fill="#FFFFFF" d="M64.012,54.467H58.8l-9.205-7.891c-3.87,0-10.455,0-10.544,0v7.891h-3.962V32.25h18.07
		c6.127,0,8.869,1.827,8.869,7.128c0,4.542-2.437,6.616-7.496,6.953L64.012,54.467z M52.947,43.374c3.597,0,5.062-0.455,5.062-3.843
		c0-3.411-1.526-3.897-5.121-3.897c-0.489,0-13.836,0-13.836,0v7.74C39.386,43.374,52.763,43.374,52.947,43.374z"/>
	<path fill="#FFFFFF" d="M64.51,43.374c0-9.57,6.218-11.704,16.7-11.704c10.545,0,16.732,2.072,16.732,11.643
		c0,9.509-6.248,11.642-16.792,11.642C70.668,54.955,64.51,52.883,64.51,43.374z M93.586,43.374c0-6.858-3.69-8.167-12.435-8.167
		c-8.683,0-12.283,1.247-12.283,8.106c0,6.827,3.6,8.166,12.342,8.166C90.049,51.479,93.586,50.198,93.586,43.374z"/>
	<path fill="#FFFFFF" d="M100.375,32.25h13.287c9.718,0,15.843,1.492,15.843,11.063c0,9.509-6.244,11.153-15.843,11.153
		c-7.803,0-13.287,0-13.287,0V32.25z M113.633,51.144c8.19,0,11.486-1.034,11.486-7.77c0-6.797-3.354-7.74-11.486-7.74
		c-6.645,0-9.239,0-9.239,0v15.51C104.394,51.144,106.681,51.144,113.633,51.144z"/>
	<path fill="#FFFFFF" d="M132.485,32.25h4.026v22.216h-4.026V32.25z"/>
	<path fill="#FFFFFF" d="M193.747,32.231h1.048v4.897h5.332v0.889h-6.38V32.231z"/>
	<path fill="#FFFFFF" d="M201.032,32.231h1.048v4.897h5.334v0.889h-6.382V32.231z"/>
	<path fill="#FFFFFF" d="M208.318,32.231h4.708c1.594,0,2.302,0.429,2.302,1.961c0,1.524-0.724,1.982-2.317,1.982
		c-0.145,0-3.571,0-3.651,0v1.842h-1.041V32.231z M212.972,35.31c0.919,0,1.31-0.127,1.31-1.103c0-0.96-0.406-1.096-1.328-1.096
		c-0.135,0-3.594,0-3.594,0v2.199C209.447,35.31,212.866,35.31,212.972,35.31z"/>
	<polygon fill="#FFFFFF" points="144.973,44.803 160.033,44.803 160.033,41.419 144.973,41.419 144.973,35.693 160.963,35.693 
		164.396,32.261 164.396,32.25 140.951,32.25 140.951,54.467 163.34,54.467 163.34,51.055 144.973,51.055 	"/>
	<path fill="#FFFFFF" d="M187.857,42.149c-1.937-0.803-4.28-0.82-7.529-0.99l-2.357-0.129c-0.824-0.051-1.578-0.066-2.416-0.076
		c-4.42-0.07-7.102-0.32-7.102-3.179c0-0.611,0.199-1.109,0.613-1.518c1.506-1.498,5.301-1.486,8.15-1.479l0.53,0.001
		c2.313,0,6.403,0.349,9.123,0.608l3.229-3.229v-0.031l-0.338-0.086c-1.059-0.26-7.268-0.901-12.015-0.901h-0.64
		c-3.543-0.006-8.302-0.023-10.782,2.44c-1.06,1.053-1.596,2.465-1.596,4.198c0,2.979,1.101,4.82,3.46,5.784
		c2.068,0.844,4.863,0.928,8.107,1.021l1.4,0.051l0.223,0.008c6.45,0.229,10.402,0.408,10.402,3.284
		c0,3.104-3.617,3.832-9.459,3.832c-5.194,0-12.872-0.879-12.952-0.889l-0.505-0.055v3.621l0.387,0.062
		c3.66,0.547,10.871,0.779,13.082,0.803c4.018,0.039,5.758-0.363,7.621-0.756c3.799-0.803,5.494-3.865,5.494-6.543
		C191.99,45.492,190.367,43.197,187.857,42.149z"/>
</g>
</svg>
